<svg xmlns="http://www.w3.org/2000/svg" viewBox="0 0 220 60" role="img" aria-labelledby="title desc">
  <title id="title">Maybank</title>
  <desc id="desc">Stylized Maybank badge for payment section</desc>
  <rect width="220" height="60" rx="14" fill="#FFCD00"/>
  <g fill="#111111">
    <path d="M30 16h10l7 28h-8l-1.2-5.4h-8.6L28 44h-8l10-28Zm.7 17.2h5.2L33.4 24l-2.7 9.2Z"/>
    <path d="M55 16h8.2l5.5 9.5 5.5-9.5h8.2v28H75V28.7l-6.3 10.1h-.2l-6.2-10V44H55V16Z"/>
    <path d="M94 16h11.4c3.6 0 6.2.9 7.9 2.5 1.3 1.3 2 2.9 2 5 0 3.6-2 5.7-4.7 6.9 3.7 1.2 6 3.4 6 7.2 0 5-4.1 8.1-11.1 8.1H94V16Zm14.1 11.2c0-1.8-1.4-2.8-4.1-2.8h-3.1v5.8h2.9c2.9 0 4.3-.9 4.3-3Zm-3.1 9.4h-4.1v6h4.2c2.8 0 4.3-1.1 4.3-3s-1.4-3-4.4-3Z"/>
    <path d="M126 16h7.7v11l9.3-11h9.1l-10.5 12 10.9 16h-9.2l-7-10.4-2.6 2.9V44H126V16Z"/>
    <path d="M160 16h8v28h-8V16Z"/>
    <path d="M177 16h7.4l11.7 15v-15h7.8v28H197l-12.1-15.5V44H177V16Z"/>
    <path d="M18 12h9v9h-9z"/>
  </g>
</svg>
